<svg width="1500" height="239" viewBox="0 0 1500 239" fill="none" xmlns="http://www.w3.org/2000/svg">
<path d="M331.299 221.828V155.156H336.941V238.299L280.341 170.502L274.681 163.717V154.137L331.299 221.828ZM41.6416 153.953C47.4596 153.953 53.0492 155.166 58.4102 157.574C63.7713 159.965 68.465 163.375 72.5254 167.752L68.0957 171.672C64.7208 167.875 60.7303 164.922 56.125 162.812C51.5374 160.703 46.7037 159.648 41.6416 159.648C35.1379 159.648 29.1609 161.283 23.6768 164.535C18.1927 167.769 13.8163 172.182 10.582 177.754C7.3303 183.326 5.69536 189.408 5.69531 195.981C5.69531 202.555 7.33033 208.637 10.582 214.209C13.8162 219.763 18.1927 224.176 23.6768 227.428C29.161 230.68 35.1379 232.297 41.6416 232.297C47.0378 232.297 52.1702 231.119 57.0215 228.764C61.8729 226.391 66.0216 223.103 69.4844 218.885L74.0371 222.436C70.0822 227.41 65.2654 231.26 59.6055 234.002C53.9632 236.744 47.9694 238.115 41.6416 238.115C34.136 238.115 27.1746 236.217 20.7588 232.42C14.3431 228.623 9.28107 223.507 5.57227 217.057C1.86354 210.588 2.0892e-06 203.575 0 195.981C4.74309e-05 188.388 1.86352 181.375 5.57227 174.977C9.28109 168.561 14.3431 163.445 20.7588 159.648C27.1746 155.852 34.136 153.953 41.6416 153.953ZM140.299 155.711C144.131 156.643 147.804 158.119 151.302 160.176C157.682 163.902 162.71 168.983 166.401 175.398C170.092 181.814 171.938 188.775 171.938 196.333C171.938 203.891 170.092 210.87 166.401 217.285C162.71 223.701 157.682 228.781 151.302 232.508C144.939 236.234 137.996 238.115 130.543 238.115C123.09 238.115 116.164 236.234 109.801 232.508C103.42 228.781 98.3934 223.701 94.7021 217.285C91.0111 210.869 89.165 203.874 89.165 196.333C89.1651 188.792 91.011 181.814 94.7021 175.398C98.3934 168.983 103.42 163.902 109.801 160.176C113.299 158.119 116.955 156.643 120.787 155.711V161.705C117.975 162.496 115.267 163.674 112.684 165.203C107.235 168.437 102.893 172.797 99.6592 178.281C96.4426 183.783 94.8252 189.777 94.8252 196.333C94.8252 202.889 96.4427 208.901 99.6592 214.385C102.893 219.886 107.235 224.246 112.684 227.48C118.133 230.697 124.074 232.314 130.543 232.314C137.011 232.314 142.952 230.697 148.419 227.48C153.868 224.246 158.175 219.887 161.374 214.385C164.555 208.901 166.155 202.872 166.155 196.333C166.155 189.794 164.555 183.783 161.374 178.281C158.175 172.797 153.868 168.437 148.419 165.203C145.818 163.674 143.129 162.496 140.299 161.705V155.711ZM247.918 221.645V154.973H253.561V238.115L196.961 170.318L191.301 163.533V153.953L247.918 221.645ZM467.795 153.953C473.613 153.953 479.203 155.166 484.564 157.574C489.926 159.965 494.619 163.375 498.68 167.752L494.25 171.672C490.875 167.875 486.885 164.922 482.279 162.812C477.692 160.703 472.857 159.648 467.795 159.648C461.291 159.649 455.315 161.283 449.831 164.535C444.347 167.769 439.97 172.182 436.735 177.754C433.484 183.326 431.85 189.408 431.85 195.981C431.85 202.555 433.484 208.637 436.735 214.209C439.97 219.763 444.347 224.176 449.831 227.428C455.315 230.68 461.291 232.297 467.795 232.297C473.191 232.297 478.324 231.119 483.176 228.764C488.027 226.391 492.176 223.103 495.639 218.885L500.19 222.436C496.236 227.41 491.42 231.26 485.76 234.002C480.117 236.744 474.123 238.115 467.795 238.115C460.289 238.115 453.329 236.217 446.913 232.42C440.497 228.623 435.435 223.508 431.727 217.057C428.018 210.588 426.154 203.575 426.154 195.981C426.154 188.388 428.018 181.375 431.727 174.977C435.435 168.561 440.497 163.445 446.913 159.648C453.329 155.852 460.29 153.953 467.795 153.953ZM1230.58 237.419H1224.37L1193.75 168.199L1161.6 237.419H1155.27L1194 154.154L1230.58 237.419ZM924.844 154.585C928.675 155.517 932.349 156.993 935.847 159.05C942.227 162.776 947.255 167.857 950.946 174.272C954.637 180.688 956.483 187.649 956.483 195.207C956.483 202.765 954.637 209.744 950.946 216.159C947.255 222.575 942.227 227.655 935.847 231.382C929.484 235.108 922.541 236.989 915.088 236.989C907.635 236.989 900.71 235.108 894.347 231.382C887.966 227.655 882.938 222.575 879.247 216.159C875.556 209.744 873.71 202.748 873.71 195.207C873.71 187.666 875.556 180.688 879.247 174.272C882.938 167.857 887.966 162.776 894.347 159.05C897.844 156.993 901.5 155.517 905.332 154.585V160.579C902.52 161.37 899.812 162.548 897.229 164.077C891.78 167.311 887.438 171.671 884.204 177.155C880.988 182.657 879.37 188.651 879.37 195.207C879.37 201.763 880.988 207.775 884.204 213.259C887.438 218.76 891.78 223.12 897.229 226.354C902.678 229.571 908.619 231.188 915.088 231.188C921.556 231.188 927.497 229.571 932.964 226.354C938.413 223.12 942.72 218.761 945.919 213.259C949.1 207.775 950.7 201.746 950.7 195.207C950.7 188.668 949.1 182.657 945.919 177.155C942.72 171.671 938.413 167.311 932.964 164.077C930.363 162.548 927.673 161.37 924.844 160.579V154.585ZM1040.95 155.219C1044.8 155.219 1048.4 155.834 1051.76 157.047C1055.12 158.26 1058.05 160 1060.56 162.268C1063.01 164.447 1064.87 166.908 1066.17 169.685C1067.47 172.444 1068.12 175.292 1068.12 178.245C1068.12 182.85 1066.73 186.982 1063.96 190.62C1061.2 194.276 1057.93 196.895 1054.15 198.494C1051.55 199.672 1049.02 200.393 1046.54 200.691C1044.06 200.99 1041.44 201.131 1038.68 201.131L1068.25 236.989H1060.69L1026.73 195.718H1036.8C1043 195.718 1048.03 194.927 1051.88 193.327C1054.73 191.991 1057.21 189.952 1059.32 187.228C1061.41 184.503 1062.46 181.514 1062.46 178.245C1062.46 175.292 1061.57 172.514 1059.81 169.86C1058.05 167.224 1055.54 165.08 1052.27 163.393C1049 161.723 1045.22 160.879 1040.95 160.879H1018.04V160.949H1012.38V155.219H1040.95ZM1131.32 199.004H1094.46V231.083H1141.76V236.989H1088.8V193.222H1131.32V199.004ZM1326.12 236.989H1320.46V155.219H1326.12V236.989ZM1463.77 208.672V236.989H1458.11L1458.09 208.672V206.809L1461.01 202.52L1493.21 155.219H1500L1463.77 208.672ZM280.341 201.21V236.928H274.681V194.372L280.341 201.21ZM400.582 198.934H363.722V231.013H411.022V236.919H358.062V193.151H400.582V198.934ZM548.304 236.919H542.468V180.196H548.304V236.919ZM196.961 201.026V236.744H191.301V194.188L196.961 201.026ZM638.474 198.687H601.613V230.766H648.914V236.672H595.953V192.903H638.474V198.687ZM693.141 154.408C698.959 154.408 704.355 155.498 709.329 157.643C714.321 159.787 718.61 162.846 722.249 166.818C725.712 170.615 728.365 174.957 730.211 179.86C732.074 184.747 733.006 189.933 733.006 195.417C733.006 200.901 732.074 206.086 730.211 210.99C728.365 215.877 725.712 220.272 722.249 224.156C718.61 228.199 714.321 231.293 709.329 233.455C704.355 235.599 698.959 236.672 693.141 236.672H669.463V230.977H693.141C703.353 230.976 711.65 227.39 718.065 220.219C721.018 217.02 723.269 213.293 724.833 209.021C726.397 204.768 727.188 200.145 727.188 195.417C727.188 190.689 726.397 186.206 724.833 181.935C723.269 177.681 721.018 173.955 718.065 170.738C711.562 163.743 703.265 160.244 693.141 160.244H669.463V154.408H693.141ZM831.554 236.672H825.718V179.948H831.554V236.672ZM1251.4 230.977H1297.6V236.672H1245.71V154.408H1251.4V230.977ZM1379.73 236.672H1373.89V179.948H1379.73V236.672ZM1449.15 185.153L1445.67 190.304L1421.88 155.219H1428.67L1449.15 185.153ZM1141.76 161.02L1105.34 161.002H1088.8V155.219H1141.76V161.02ZM411.022 160.949L374.602 160.931H358.062V155.148H411.022V160.949ZM648.914 160.701L612.493 160.684H595.953V154.901H648.914V160.701ZM580.822 160.474H509.826V154.655H580.822V160.474ZM864.072 160.227H793.076V154.408H864.072V160.227ZM1412.25 160.227H1341.25V154.408H1412.25V160.227ZM689.697 83.3936H684.038V1.62207H689.697V83.3936ZM739.791 83.3926H733.955V26.6699H739.791V83.3926ZM842.34 83.3926H836.135L805.515 14.1719L773.365 83.3926H767.037L805.761 0.126953L842.34 83.3926ZM281.976 39.623H282.099V45.4062H281.976V83.3916H276.192V1.62012H281.976V39.623ZM335.938 83.3916H330.279V45.4062H301.609V39.623H330.279V1.62012H335.938V83.3916ZM399.007 45.4062H362.146V77.4854H409.448V83.3916H356.486V39.623H399.007V45.4062ZM1014.81 45.4062H977.95V77.4854H1025.25V83.3916H972.29V39.623H1014.81V45.4062ZM1135.88 1.62012C1139.73 1.62014 1143.34 2.2354 1146.69 3.44824C1150.05 4.66105 1152.98 6.40162 1155.5 8.66895C1157.94 10.8485 1159.8 13.3097 1161.11 16.0869C1162.41 18.8466 1163.06 21.6945 1163.06 24.6475C1163.06 29.2526 1161.67 33.383 1158.89 37.0215C1156.13 40.6775 1152.86 43.2969 1149.08 44.8965C1146.48 46.0741 1143.95 46.7949 1141.47 47.0938C1138.99 47.3926 1136.37 47.5332 1133.61 47.5332L1163.18 83.3916H1155.62L1121.66 42.1191H1131.73C1137.94 42.1191 1142.97 41.3281 1146.82 39.7285C1149.66 38.3926 1152.14 36.3533 1154.25 33.6289C1156.34 30.9045 1157.4 27.9167 1157.4 24.6475C1157.4 21.6945 1156.5 18.9169 1154.74 16.2627C1152.98 13.6262 1150.47 11.4813 1147.2 9.79395C1143.93 8.12409 1140.15 7.2803 1135.88 7.28027H1112.98V7.35059H1107.32V1.62012H1135.88ZM223.126 83.3906H217.29V26.668H223.126V83.3906ZM499.966 1.12793C505.784 1.12795 511.181 2.21786 516.155 4.3623C521.147 6.50669 525.436 9.56488 529.074 13.5371C532.537 17.3338 535.191 21.676 537.037 26.5801C538.9 31.4666 539.832 36.6525 539.832 42.1367C539.832 47.6207 538.9 52.806 537.037 57.71C535.191 62.5965 532.537 66.9913 529.074 70.876C525.436 74.9186 521.147 78.0128 516.155 80.1748C511.181 82.3193 505.784 83.3906 499.966 83.3906H476.289V77.6963H499.966C510.178 77.6962 518.475 74.1099 524.891 66.9385C527.844 63.7394 530.094 60.0125 531.658 55.7412C533.223 51.4876 534.014 46.8649 534.014 42.1367C534.014 37.4084 533.223 32.9256 531.658 28.6543C530.094 24.4006 527.844 20.6737 524.891 17.457C518.387 10.4615 510.09 6.96391 499.966 6.96387H476.289V1.12793H499.966ZM631.481 0.125C637.229 0.125023 642.732 1.30283 648.005 3.6582C653.278 6.03115 657.848 9.31862 661.732 13.5371L657.549 17.457C654.174 13.8361 650.219 11.0234 645.667 9.03711C641.097 7.05086 636.368 6.06643 631.481 6.06641C625.066 6.06645 619.125 7.66627 613.641 10.8828C608.156 14.0819 603.814 18.4064 600.598 23.8555C597.399 29.2868 595.799 35.2455 595.799 41.749C595.799 48.2526 597.399 54.2464 600.598 59.7305C603.814 65.2146 608.156 69.5743 613.641 72.8262C619.125 76.0779 625.066 77.6953 631.481 77.6953H655.282V48.2178H655.265V42.5225H661.223V83.3906H631.481C623.976 83.3906 617.05 81.5447 610.723 77.8184C604.395 74.1095 599.385 69.0642 595.676 62.7012C591.95 56.3382 590.104 49.2545 590.104 41.749C590.104 34.2436 591.95 27.3005 595.676 20.9375C599.385 14.5744 604.395 9.51159 610.723 5.75C617.05 1.98852 623.976 0.125048 631.481 0.125ZM863.164 77.6963H909.358V83.3906H857.469V1.12793H863.164V77.6963ZM1111.95 83.3906H1105.75L1075.12 14.1699L1042.98 83.3906H1036.65L1075.37 0.125L1111.95 83.3906ZM1261.39 39.6211H1261.51V45.4043H1261.39V83.3896H1255.61V1.61914H1261.39V39.6211ZM1315.35 83.3896H1309.7V45.4043H1281.03V39.6211H1309.7V1.61914H1315.35V83.3896ZM1209.72 82.3887H1203.88V25.666H1209.72V82.3887ZM567.798 81.7715H562.138V0H567.798V81.7715ZM409.448 7.4209L373.027 7.40332H356.486V1.62012H409.448V7.4209ZM1025.25 7.4209L988.83 7.40332H972.29V1.62012H1025.25V7.4209ZM772.31 6.94727H701.313V1.12988H772.31V6.94727ZM255.645 6.94629H184.648V1.12793H255.645V6.94629ZM1242.24 5.94336H1171.24V0.125H1242.24V5.94336Z" fill="#A4D5FF"/>
</svg>
