<svg width="3000" height="95" viewBox="0 0 3000 95" fill="none" xmlns="http://www.w3.org/2000/svg">
<path d="M1700.07 75.9697V1.81152H1706.35V94.2891L1643.39 18.8799L1637.1 11.333V0.677734L1700.07 75.9697ZM1377.89 0.473633C1384.36 0.473639 1390.58 1.82258 1396.54 4.50098C1402.51 7.15995 1407.73 10.953 1412.24 15.8213L1407.32 20.1816C1403.56 15.9586 1399.13 12.6733 1394 10.3271C1388.9 7.981 1383.52 6.80762 1377.89 6.80762C1370.66 6.80762 1364.01 8.62622 1357.91 12.2432C1351.81 15.8406 1346.94 20.7485 1343.35 26.9463C1339.73 33.144 1337.91 39.9086 1337.91 47.2207C1337.91 54.5328 1339.73 61.2974 1343.35 67.4951C1346.94 73.6733 1351.81 78.5813 1357.91 82.1982C1364.01 85.8151 1370.66 87.6133 1377.89 87.6133C1383.89 87.6133 1389.6 86.3035 1395 83.6836C1400.4 81.0443 1405.01 77.3884 1408.86 72.6963L1413.93 76.6455C1409.53 82.1784 1404.17 86.4598 1397.87 89.5098C1391.6 92.5598 1384.93 94.085 1377.89 94.085C1369.54 94.085 1361.8 91.973 1354.67 87.75C1347.53 83.5269 1341.9 77.8374 1337.77 70.6621C1333.65 63.4673 1331.58 55.6667 1331.58 47.2207C1331.58 38.7746 1333.65 30.9731 1337.77 23.8564C1341.9 16.7204 1347.53 11.0306 1354.67 6.80762C1361.8 2.58474 1369.54 0.473633 1377.89 0.473633ZM1487.63 2.42871C1491.89 3.46493 1495.98 5.10703 1499.87 7.39453C1506.96 11.5394 1512.56 17.19 1516.66 24.3262C1520.77 31.4622 1522.82 39.2045 1522.82 47.6113C1522.82 56.0184 1520.77 63.7808 1516.66 70.917C1512.56 78.0532 1506.96 83.7038 1499.87 87.8486C1492.79 91.9934 1485.07 94.0849 1476.78 94.085C1468.49 94.085 1460.78 91.9933 1453.71 87.8486C1446.61 83.7038 1441.02 78.0531 1436.91 70.917C1432.81 63.7808 1430.75 55.9988 1430.75 47.6113C1430.75 39.224 1432.81 31.4623 1436.91 24.3262C1441.02 17.19 1446.61 11.5394 1453.71 7.39453C1457.6 5.10721 1461.66 3.4649 1465.92 2.42871V9.0957C1462.8 9.9755 1459.79 11.2855 1456.91 12.9863C1450.85 16.5837 1446.02 21.4324 1442.42 27.5322C1438.85 33.6517 1437.05 40.3188 1437.05 47.6113C1437.05 54.9039 1438.85 61.5905 1442.42 67.6904C1446.02 73.81 1450.85 78.6594 1456.91 82.2568C1462.97 85.8346 1469.58 87.6328 1476.78 87.6328C1483.97 87.6328 1490.58 85.8347 1496.66 82.2568C1502.72 78.6594 1507.51 73.8099 1511.07 67.6904C1514.61 61.5905 1516.39 54.8842 1516.39 47.6113C1516.39 40.3384 1514.61 33.6517 1511.07 27.5322C1507.51 21.4324 1502.72 16.5837 1496.66 12.9863C1493.77 11.2854 1490.77 9.97551 1487.63 9.0957V2.42871ZM1607.33 75.7656V1.60742H1613.61V94.085L1550.65 18.6758L1544.36 11.1289V0.473633L1607.33 75.7656ZM1851.9 0.473633C1858.37 0.473656 1864.58 1.82257 1870.55 4.50098C1876.51 7.15995 1881.73 10.953 1886.25 15.8213L1881.32 20.1816C1877.57 15.9586 1873.13 12.6733 1868.01 10.3271C1862.9 7.98102 1857.53 6.80764 1851.9 6.80762C1844.66 6.80762 1838.01 8.62625 1831.92 12.2432C1825.82 15.8406 1820.95 20.7485 1817.35 26.9463C1813.73 33.144 1811.91 39.9086 1811.91 47.2207C1811.91 54.5328 1813.73 61.2974 1817.35 67.4951C1820.95 73.6733 1825.82 78.5813 1831.92 82.1982C1838.01 85.8151 1844.66 87.6133 1851.9 87.6133C1857.9 87.6133 1863.61 86.3034 1869 83.6836C1874.4 81.0442 1879.01 77.3884 1882.87 72.6963L1887.93 76.6455C1883.53 82.1784 1878.17 86.4598 1871.88 89.5098C1865.6 92.5597 1858.93 94.0849 1851.9 94.085C1843.55 94.085 1835.81 91.9731 1828.67 87.75C1821.53 83.527 1815.9 77.8373 1811.78 70.6621C1807.65 63.4673 1805.58 55.6667 1805.58 47.2207C1805.58 38.7746 1807.65 30.9731 1811.78 23.8564C1815.9 16.7204 1821.53 11.0306 1828.67 6.80762C1835.81 2.58454 1843.55 0.473633 1851.9 0.473633ZM2700.33 93.3115H2693.42L2659.37 16.3184L2623.61 93.3115H2616.57L2659.64 0.697266L2700.33 93.3115ZM2489.4 1.88086C2493.69 1.88086 2497.69 2.56502 2501.43 3.91406C2505.16 5.2631 2508.43 7.19865 2511.22 9.7207C2513.94 12.1451 2516.01 14.8826 2517.46 17.9717C2518.91 21.0412 2519.63 24.2086 2519.63 27.4932C2519.63 32.6155 2518.09 37.2098 2515 41.2568C2511.93 45.3235 2508.29 48.2365 2504.09 50.0156C2501.19 51.3254 2498.38 52.1276 2495.62 52.46C2492.87 52.7923 2489.95 52.9482 2486.88 52.9482L2519.77 92.833H2511.36L2473.59 46.9268H2484.79C2491.69 46.9268 2497.28 46.0467 2501.57 44.2676C2504.73 42.7817 2507.49 40.5138 2509.84 37.4834C2512.16 34.4531 2513.33 31.1295 2513.33 27.4932C2513.33 24.2086 2512.34 21.1192 2510.38 18.167C2508.43 15.2343 2505.63 12.8486 2502 10.9717C2498.36 9.11443 2494.16 8.17578 2489.4 8.17578H2463.93V8.25488H2457.63V1.88086H2489.4ZM2589.92 50.583H2548.92V86.2637H2601.53V92.833H2542.62V44.1504H2589.92V50.583ZM2806.6 92.833H2800.3V1.88086H2806.6V92.833ZM3000 1.88086L2959.7 61.3359V92.833H2953.41L2953.39 61.3359V59.2637L2956.63 54.4932L2992.45 1.88086H3000ZM2360.26 1.17578C2364.52 2.212 2368.61 3.85508 2372.5 6.14258C2379.6 10.2874 2385.19 15.9371 2389.3 23.0732C2393.4 30.2095 2395.46 37.9523 2395.46 46.3594C2395.46 54.7662 2393.4 62.528 2389.3 69.6641C2385.19 76.8003 2379.6 82.4508 2372.5 86.5957C2365.42 90.7405 2357.7 92.832 2349.41 92.832C2341.12 92.832 2333.42 90.7405 2326.34 86.5957C2319.24 82.4508 2313.65 76.8003 2309.55 69.6641C2305.44 62.528 2303.39 54.7467 2303.39 46.3594C2303.39 37.9719 2305.44 30.2095 2309.55 23.0732C2313.65 15.9371 2319.24 10.2874 2326.34 6.14258C2330.23 3.85508 2334.3 2.212 2338.56 1.17578V7.84277C2335.43 8.72257 2332.42 10.0325 2329.55 11.7334C2323.49 15.3308 2318.66 20.1803 2315.06 26.2803C2311.48 32.3998 2309.68 39.0668 2309.68 46.3594C2309.68 53.6519 2311.48 60.3386 2315.06 66.4385C2318.66 72.5579 2323.49 77.4065 2329.55 81.0039C2335.61 84.5818 2342.22 86.3809 2349.41 86.3809C2356.61 86.3809 2363.22 84.5818 2369.3 81.0039C2375.36 77.4065 2380.15 72.5579 2383.71 66.4385C2387.24 60.3386 2389.02 53.6323 2389.02 46.3594C2389.02 39.0864 2387.24 32.3998 2383.71 26.2803C2380.15 20.1803 2375.36 15.3308 2369.3 11.7334C2366.4 10.0325 2363.41 8.72257 2360.26 7.84277V1.17578ZM1643.39 53.0361V92.7646H1637.1V45.4307L1643.39 53.0361ZM561.758 92.7568H555.463V1.80469H561.758V92.7568ZM617.476 92.7568H610.984V29.6641H617.476V92.7568ZM731.539 92.7559H724.637L690.579 15.7627L654.819 92.7559H647.781L690.853 0.141602L731.539 92.7559ZM42.7979 92.7549H36.3066V29.6621H42.7979V92.7549ZM108.256 44.0723H108.393V50.5049H108.256V92.7549H101.823V1.80273H108.256V44.0723ZM168.278 92.7549H161.982V50.5049H130.095V44.0723H161.982V1.80273H168.278V92.7549ZM238.428 50.5049H197.429V86.1855H250.041V92.7549H191.133V44.0723H238.428V50.5049ZM923.375 50.5049H882.376V86.1855H934.988V92.7549H876.08V44.0723H923.375V50.5049ZM1058.04 1.80273C1062.32 1.80274 1066.33 2.4869 1070.07 3.83594C1073.8 5.18497 1077.06 7.12056 1079.86 9.64258C1082.58 12.0668 1084.65 14.8038 1086.1 17.8926C1087.54 20.9621 1088.27 24.1304 1088.27 27.415C1088.27 32.5373 1086.72 37.1317 1083.63 41.1787C1080.56 45.2454 1076.93 48.1583 1072.72 49.9375C1069.83 51.2474 1067.01 52.0495 1064.26 52.3818C1061.5 52.7142 1058.59 52.8701 1055.52 52.8701L1088.4 92.7549H1080L1042.22 46.8486H1053.43C1060.33 46.8486 1065.92 45.9686 1070.2 44.1895C1073.37 42.7036 1076.13 40.4355 1078.47 37.4053C1080.8 34.3749 1081.97 31.0514 1081.97 27.415C1081.97 24.1305 1080.97 21.041 1079.02 18.0889C1077.06 15.1562 1074.27 12.7705 1070.63 10.8936C1067 9.03626 1062.79 8.09766 1058.04 8.09766H1032.57V8.17578H1026.27V1.80273H1058.04ZM1777.14 50.5049H1736.14V86.1855H1788.75V92.7549H1729.84V44.0723H1777.14V50.5049ZM1941.44 92.7549H1934.95V29.6621H1941.44V92.7549ZM350.723 1.25488C357.194 1.25489 363.197 2.46632 368.729 4.85156C374.282 7.23682 379.052 10.639 383.1 15.0576C386.951 19.2806 389.903 24.1097 391.956 29.5645C394.028 34.9996 395.064 40.7673 395.064 46.8672C395.064 52.9672 394.028 58.7356 391.956 64.1904C389.903 69.6255 386.951 74.5133 383.1 78.834C379.053 83.3308 374.282 86.772 368.729 89.1768C363.196 91.562 357.194 92.7539 350.723 92.7539H324.387V86.4199H350.723C362.082 86.4199 371.31 82.431 378.446 74.4541C381.731 70.8958 384.234 66.7509 385.974 62C387.714 57.2687 388.594 52.1264 388.594 46.8672C388.594 41.6081 387.714 36.6228 385.974 31.8721C384.234 27.1407 381.731 22.9958 378.446 19.418C371.212 11.6366 361.984 7.74513 350.723 7.74512H324.387V1.25488H350.723ZM497.005 0.139648C503.398 0.139648 509.518 1.44947 515.384 4.06934C521.249 6.70874 526.333 10.3645 530.653 15.0566L526 19.417C522.246 15.3894 517.847 12.2611 512.783 10.0518C507.7 7.84246 502.44 6.74805 497.005 6.74805C489.869 6.74811 483.261 8.52685 477.161 12.1045C471.061 15.6628 466.231 20.4724 462.653 26.5332C459.095 32.5745 457.316 39.2027 457.316 46.4365C457.316 53.6704 459.095 60.3376 462.653 66.4375C466.231 72.5375 471.061 77.3869 477.161 81.0039C483.261 84.6206 489.869 86.4189 497.005 86.4189H523.478V53.6318H523.458V47.2969H530.086V92.7539H497.005C488.657 92.7538 480.953 90.7005 473.915 86.5557C466.877 82.4304 461.305 76.8195 457.18 69.7422C453.035 62.6646 450.981 54.7849 450.981 46.4365C450.981 38.0882 453.035 30.3656 457.18 23.2881C461.305 16.2106 466.877 10.5795 473.915 6.39551C480.953 2.2116 488.657 0.13971 497.005 0.139648ZM754.701 86.4199H806.082V92.7539H748.367V1.25488H754.701V86.4199ZM1031.42 92.7539H1024.52L990.462 15.7607L954.702 92.7539H947.664L990.735 0.139648L1031.42 92.7539ZM1197.64 44.0703H1197.78V50.5029H1197.64V92.7529H1191.21V1.80078H1197.64V44.0703ZM1257.67 92.7529H1251.37V50.5029H1219.48V44.0703H1251.37V1.80078H1257.67V92.7529ZM1550.65 52.832V92.5596H1544.36V45.2266L1550.65 52.832ZM2041.74 50.2295H2000.74V85.9111H2053.35V92.4805H1994.44V43.7969H2041.74V50.2295ZM2102.54 0.979492C2109.02 0.97953 2115.02 2.19193 2120.55 4.57715C2126.1 6.96238 2130.87 10.3638 2134.92 14.7822C2138.77 19.0053 2141.72 23.8352 2143.78 29.29C2145.85 34.7252 2146.89 40.4929 2146.89 46.5928C2146.89 52.6927 2145.85 58.4603 2143.78 63.915C2141.72 69.3501 2138.77 74.2378 2134.92 78.5586C2130.87 83.0553 2126.1 86.4966 2120.55 88.9014C2115.02 91.2866 2109.02 92.4795 2102.54 92.4795H2076.21V86.1445H2102.54C2113.9 86.1445 2123.13 82.1565 2130.27 74.1797C2133.55 70.6214 2136.05 66.4765 2137.79 61.7256C2139.53 56.9942 2140.41 51.852 2140.41 46.5928C2140.41 41.3335 2139.53 36.3476 2137.79 31.5967C2136.05 26.8653 2133.55 22.7204 2130.27 19.1426C2123.03 11.3612 2113.81 7.47077 2102.54 7.4707H2076.21V0.979492H2102.54ZM2256.5 92.4795H2250.01V29.3877H2256.5V92.4795ZM2723.49 86.1445H2774.87V92.4795H2717.15V0.979492H2723.49V86.1445ZM2866.22 92.4795H2859.73V29.3877H2866.22V92.4795ZM1140.17 91.6396H1133.68V28.5479H1140.17V91.6396ZM426.171 90.9521H419.875V0H426.171V90.9521ZM2920.66 1.88086L2943.44 35.1768L2939.57 40.9053L2913.11 1.88086H2920.66ZM2601.53 8.33301L2561.02 8.31348H2542.62V1.88086H2601.53V8.33301ZM250.041 8.25391L209.53 8.23438H191.133V1.80273H250.041V8.25391ZM934.988 8.25391L894.479 8.23438H876.08V1.80273H934.988V8.25391ZM1788.75 8.25391L1748.24 8.23438H1729.84V1.80273H1788.75V8.25391ZM2053.35 7.97949L2012.84 7.95996H1994.44V1.52734H2053.35V7.97949ZM653.646 7.72754H574.678V1.25586H653.646V7.72754ZM78.9678 7.72559H0V1.25488H78.9678V7.72559ZM1977.61 7.72559H1898.65V1.25488H1977.61V7.72559ZM2292.67 7.45117H2213.7V0.979492H2292.67V7.45117ZM2902.39 7.45117H2823.43V0.979492H2902.39V7.45117ZM1176.34 6.61133H1097.37V0.139648H1176.34V6.61133Z" fill="#A4D5FF"/>
</svg>
