<svg width="350" height="79" viewBox="0 0 350 79" fill="none" xmlns="http://www.w3.org/2000/svg">
<path fill-rule="evenodd" clip-rule="evenodd" d="M346.744 3.26633L349.999 15.3426L337.835 12.1747L334.656 0L346.744 3.26633Z" fill="url(#paint0_linear_112_66234)"/>
<path d="M334.656 0L337.835 12.1747L329.014 20.9956L325.748 8.90844L334.656 0Z" fill="#0A04B3"/>
<path d="M349.999 15.3424L341.09 24.2508L329.014 20.9954L337.835 12.1745L349.999 15.3424Z" fill="#4842FA"/>
<path d="M335.6 3.72333L344.062 5.94749L331.696 18.3142L329.461 9.8629L334.302 8.64156L335.6 3.72333Z" fill="#4D47FA"/>
<path d="M346.286 14.4096L344.062 5.94749L331.696 18.3142L340.147 20.5491L341.368 15.7075L346.286 14.4096Z" fill="#0A04A4"/>
<path d="M234.082 15.9463C241.784 15.9463 248.836 18.7273 254.289 23.3398L245.916 31.7139C242.632 29.2098 238.531 27.7218 234.083 27.7217C223.295 27.7217 214.55 36.4672 214.55 47.2549C214.55 58.0425 223.295 66.7871 234.083 66.7871C244.87 66.7869 253.615 58.0423 253.615 47.2549C253.615 42.8083 252.129 38.7089 249.627 35.4258L258.001 27.0518C262.611 32.5045 265.391 39.5552 265.391 47.2549C265.391 64.5461 251.373 78.5634 234.082 78.5635C216.791 78.5635 202.774 64.5461 202.773 47.2549C202.773 29.9636 216.791 15.9463 234.082 15.9463ZM304.081 15.9463C311.783 15.9463 318.835 18.7273 324.288 23.3398L315.914 31.7139C312.63 29.2098 308.529 27.7217 304.081 27.7217C293.294 27.7219 284.549 36.4673 284.549 47.2549C284.549 58.0424 293.294 66.7869 304.081 66.7871C314.869 66.7871 323.614 58.0425 323.614 47.2549C323.614 42.8084 322.128 38.7089 319.626 35.4258L328 27.0518C332.61 32.5045 335.39 39.5553 335.39 47.2549C335.39 64.546 321.372 78.5634 304.081 78.5635C286.79 78.5635 272.773 64.5461 272.772 47.2549C272.772 29.9636 286.79 15.9463 304.081 15.9463ZM135.261 28.5605L129.512 43.6104L129.508 43.5996L116.311 78.0449H103.395L129.508 14.6816L135.261 28.5605ZM155.773 78.0449H142.519L132.302 50.9795L138.18 35.6426L155.773 78.0449ZM25.2949 44.7695L50.8926 78.0439H35.5996L17.457 53.8652L13.0283 58.8965V78.0439H0V56.4795L13.0283 41.5215V41.5498L34.9502 16.418H49.5146L25.2949 44.7695ZM100.9 78.0439H60.6465V66.4229H100.9V78.0439ZM184.499 78.0439H171.39V33.2939H184.499V78.0439ZM73.7559 61.1709H60.6465V16.417H73.7559V61.1709ZM13.0293 33.5566L0.00195312 48.4893V16.418H13.0293V33.5566ZM202.625 28.0391H184.499V28.043H171.391V28.0391H153.266V16.417H202.625V28.0391Z" fill="white"/>
<defs>
<linearGradient id="paint0_linear_112_66234" x1="326.318" y1="2.88925" x2="351.024" y2="5.07667" gradientUnits="userSpaceOnUse">
<stop stop-color="#5C99FC"/>
<stop offset="1" stop-color="#1810F9"/>
</linearGradient>
</defs>
</svg>
