<svg width="1148" height="248" viewBox="0 0 1148 248" fill="none" xmlns="http://www.w3.org/2000/svg">
<path d="M75.8291 128.052L161.164 247.682L117.649 247.683L53.5488 151.693L36.0068 170.307V247.679H0.00683594V208.506L0 208.514V165.808L0.00683594 165.8V165.792L36.0068 126.262V126.478L117.309 37.6753H161.004L75.8291 128.052ZM36.0068 74.2974L0.00683594 113.828V37.6792H36.0068V74.2974Z" fill="white"/>
<path d="M217.402 211.677H331.01L314.332 247.677H181.402V37.6772H217.402V211.677Z" fill="white"/>
<path d="M429.521 37.9443L435.728 51.4072L447.452 76.6582L429.448 115.521L429.354 115.32L367.855 247.673H331.855L411.323 76.5166L411.316 76.5L429.148 38.0078L429.355 37.6816L429.521 37.9443ZM526.855 247.673H490.855L449.315 158.277L467.312 119.431L526.855 247.673Z" fill="white"/>
<path d="M593.793 101.93V247.677L557.793 247.676V101.929L593.793 101.93ZM668.796 73.6768H480.879L497.557 37.6768H668.796V73.6768Z" fill="white"/>
<path d="M771.797 247.677C713.807 247.677 666.796 200.667 666.796 142.677C666.796 84.6874 713.807 37.6772 771.797 37.6772C793.607 37.6773 813.863 44.3281 830.649 55.7104L806.643 79.4419C796.312 73.7372 784.435 70.4888 771.799 70.4888C731.931 70.4888 699.611 102.808 699.61 142.676C699.61 182.544 731.931 214.864 771.799 214.864C811.667 214.864 843.986 182.544 843.986 142.676C843.986 128.511 839.905 115.298 832.855 104.15L856.568 80.7095C869.287 98.0783 876.797 119.5 876.797 142.677C876.797 200.667 829.787 247.677 771.797 247.677Z" fill="white"/>
<path d="M997.191 247.677C939.201 247.677 892.19 200.667 892.19 142.677C892.191 84.6874 939.201 37.6772 997.191 37.6772C1019 37.6773 1039.26 44.3279 1056.04 55.7104L1032.04 79.4419C1021.71 73.7369 1009.83 70.4888 997.193 70.4888C957.325 70.4888 925.005 102.808 925.005 142.676C925.005 182.544 957.325 214.864 997.193 214.864C1037.06 214.864 1069.38 182.544 1069.38 142.676C1069.38 128.511 1065.3 115.298 1058.25 104.15L1081.96 80.7095C1094.68 98.0783 1102.19 119.5 1102.19 142.677C1102.19 200.667 1055.18 247.677 997.191 247.677Z" fill="white"/>
<path fill-rule="evenodd" clip-rule="evenodd" d="M1112.18 0L1147.32 20.2201L1112.18 40.8415L1076.98 20.2201L1112.18 0Z" fill="url(#paint0_linear_2578_42295)"/>
<path d="M1076.98 20.2202L1112.18 40.8417V81.2818L1076.98 61.0617V20.2202Z" fill="#0A04B3"/>
<path d="M1147.32 20.2202V61.0617L1112.18 81.2818V40.8417L1147.32 20.2202Z" fill="#4842FA"/>
<path d="M1087.68 26.592L1112.18 12.2925V68.9889L1087.68 54.7395L1095.98 40.8414L1087.68 26.592Z" fill="#4D47FA"/>
<path d="M1136.68 26.592L1112.18 12.2925V68.9889L1136.68 54.7396L1128.38 40.8414L1136.68 26.592Z" fill="#0A04A4"/>
<defs>
<linearGradient id="paint0_linear_2578_42295" x1="1078.64" y1="4.86588" x2="1149.22" y2="15.6282" gradientUnits="userSpaceOnUse">
<stop stop-color="#5C99FC"/>
<stop offset="1" stop-color="#1810F9"/>
</linearGradient>
</defs>
</svg>
